<svg id="Layer_1" data-name="Layer 1" xmlns="http://www.w3.org/2000/svg" viewBox="0 0 645.33 502.19"><defs><style>.cls-1{fill:#fceadc;}.cls-2{fill:#976063;}.cls-3{fill:#fdfffe;}.cls-4{fill:#5e3b3b;}.cls-5{fill:#fff;}.cls-6{fill:#fd755f;}.cls-7{fill:#ffb486;}.cls-8{fill:#fca377;}.cls-9{fill:#bb8a5c;}.cls-10{fill:#a3bd8c;}.cls-11{fill:#ffb587;}.cls-12{fill:#ffba8c;}.cls-13{fill:#89a371;}.cls-14{fill:#9b6c49;}.cls-15{fill:#f75d59;}.cls-16{fill:#c0d8a7;}.cls-17{fill:#e2edd3;}.cls-18{fill:#ffd4cf;}.cls-19{fill:#bdd6a5;}.cls-20{fill:#ffc76c;}.cls-21{fill:#ffe9ab;}.cls-22{fill:#fff9ee;}</style></defs><path class="cls-1" d="M250.5,472.56c-33.83-12.88-80.44-60.34-88.42-120.4-5.73-43.1,3.26-74.68,16.55-97.52,23-39.53,65.84-53.52,110.5-59.88,57-8.12,83.4-42,122.07-83.4,43.21-46.22,156.76-92,219.91-38,41.11,35.16,26.87,91.37,55.43,120.37,28.73,29.17,67.36,20.35,83.22,76,12.35,43.37-14,116-91.17,170.23C607.49,489.91,368.57,517.53,250.5,472.56Z" transform="translate(-127.34 -48.91)"/><path class="cls-2" d="M413.14,550.09H631.37a12.65,12.65,0,0,0,12.85-12.45V104.38a12.66,12.66,0,0,0-12.85-12.46H413.14a12.67,12.67,0,0,0-12.86,12.46V537.64A12.66,12.66,0,0,0,413.14,550.09Z" transform="translate(-127.34 -48.91)"/><path class="cls-3" d="M636.94,135.5v32.4a2.42,2.42,0,0,1-2.41,2.41h-.21V537.64a12.65,12.65,0,0,1-12.85,12.45H403.24a12.66,12.66,0,0,1-12.86-12.45V256.73h-.3a2.42,2.42,0,0,1-2.41-2.41v-32.4a2.42,2.42,0,0,1,2.41-2.4h.3V208.31h-.3a2.42,2.42,0,0,1-2.41-2.41V173.51a2.42,2.42,0,0,1,2.41-2.41h.3V104.39a12.66,12.66,0,0,1,12.86-12.46H621.47a12.65,12.65,0,0,1,12.85,12.46V133.1h.21A2.41,2.41,0,0,1,636.94,135.5Z" transform="translate(-127.34 -48.91)"/><path class="cls-2" d="M391.38,333.1h-2V257.66a3.42,3.42,0,0,1-2.71-3.34v-32.4a3.41,3.41,0,0,1,2.71-3.33v-9.35a3.42,3.42,0,0,1-2.71-3.34V173.51a3.42,3.42,0,0,1,2.71-3.34V104.39a13.68,13.68,0,0,1,13.86-13.46H621.47a13.67,13.67,0,0,1,13.85,13.46v27.8a3.42,3.42,0,0,1,2.62,3.31v32.4a3.42,3.42,0,0,1-2.62,3.32V309.85h-2V169.31h1.21a1.41,1.41,0,0,0,1.41-1.41V135.5a1.41,1.41,0,0,0-1.41-1.4h-1.21V104.39a11.67,11.67,0,0,0-11.85-11.46H403.24a11.68,11.68,0,0,0-11.86,11.46V172.1h-1.3a1.41,1.41,0,0,0-1.41,1.41V205.9a1.41,1.41,0,0,0,1.41,1.41h1.3v13.21h-1.3a1.41,1.41,0,0,0-1.41,1.4v32.4a1.43,1.43,0,0,0,1.41,1.41h1.3Z" transform="translate(-127.34 -48.91)"/><path class="cls-2" d="M621.47,551.09H403.24a13.67,13.67,0,0,1-13.86-13.45V458.78h2v78.86a11.68,11.68,0,0,0,11.86,11.45H621.47a11.67,11.67,0,0,0,11.85-11.45V372.82h2V537.64A13.67,13.67,0,0,1,621.47,551.09Z" transform="translate(-127.34 -48.91)"/><path class="cls-1" d="M622.55,116.59V522A11.63,11.63,0,0,1,611,533.68H414.1A11.63,11.63,0,0,1,402.5,522V116.58a11.63,11.63,0,0,1,11.59-11.66h57.47a3.35,3.35,0,0,1,3.34,3.36v5.45a4.39,4.39,0,0,0,4.36,4.39h66.54a4.39,4.39,0,0,0,4.37-4.39v-5.45a3.34,3.34,0,0,1,3.33-3.36h57.46A11.64,11.64,0,0,1,622.55,116.59Z" transform="translate(-127.34 -48.91)"/><path class="cls-4" d="M485.52,107a2.06,2.06,0,1,1-2.06-2.06A2.06,2.06,0,0,1,485.52,107Z" transform="translate(-127.34 -48.91)"/><path class="cls-4" d="M543.3,108.12H496.05a1.14,1.14,0,1,1,0-2.28H543.3a1.14,1.14,0,0,1,0,2.28Z" transform="translate(-127.34 -48.91)"/><rect class="cls-5" x="413.64" y="155.28" width="197.42" height="194.39" rx="6.88" transform="translate(897.37 456.04) rotate(180)"/><path class="cls-2" d="M595.84,350.67H421.52a8.9,8.9,0,0,1-8.88-8.88V180h2V341.79a6.89,6.89,0,0,0,6.88,6.88H595.84Z" transform="translate(-127.34 -48.91)"/><path class="cls-2" d="M611.06,302.6h-2V162.16a4.89,4.89,0,0,0-4.88-4.88H438.52v-2H604.18a6.88,6.88,0,0,1,6.88,6.88Z" transform="translate(-127.34 -48.91)"/><rect class="cls-6" x="311.94" y="335.52" width="146.15" height="37.85" rx="11.22"/><path class="cls-2" d="M574.2,423.27H469.71v-2H574.2A10.24,10.24,0,0,0,584.43,411V395.65h2V411A12.25,12.25,0,0,1,574.2,423.27Z" transform="translate(-127.34 -48.91)"/><path class="cls-2" d="M450.5,423.27A12.24,12.24,0,0,1,438.28,411V395.65a12.24,12.24,0,0,1,12.22-12.23h75.77v2H450.5a10.23,10.23,0,0,0-10.22,10.23V411a10.23,10.23,0,0,0,10.22,10.23Z" transform="translate(-127.34 -48.91)"/><rect class="cls-2" x="418.11" y="334.52" width="28.76" height="2"/><path class="cls-3" d="M487.72,393.25h6.82a8.77,8.77,0,0,1,5.18,1.27,4.34,4.34,0,0,1,1.73,3.72v2a4.33,4.33,0,0,1-1.73,3.72,8.69,8.69,0,0,1-5.18,1.27h-2.19v8.22h-4.63Zm6.82,9.09a2.8,2.8,0,0,0,1.71-.44,1.72,1.72,0,0,0,.57-1.47V398a1.74,1.74,0,0,0-.57-1.47,2.8,2.8,0,0,0-1.71-.43h-2.19v6.2Z" transform="translate(-127.34 -48.91)"/><path class="cls-3" d="M508.6,393.25h6.28l4.8,20.19h-4.63l-.84-4v.06h-5.27l-.84,3.95h-4.3Zm5.06,13.5-2.07-10h-.08l-2,10Z" transform="translate(-127.34 -48.91)"/><path class="cls-3" d="M526.75,404.84l-5.6-11.59h4.93l3.16,7.41h.08l3.16-7.41H537l-5.6,11.59v8.6h-4.64Z" transform="translate(-127.34 -48.91)"/><polygon class="cls-7" points="576.33 489.43 577.96 470.46 564.04 470.46 564.88 489.43 576.33 489.43"/><path class="cls-8" d="M705.25,519.66l-.93,10.68a55.33,55.33,0,0,1-12.5-.78l-.5-11Z" transform="translate(-127.34 -48.91)"/><path class="cls-9" d="M680.37,525.58c13.16,2.07,25.39,2.93,34.68,0,0,0,7.87-88.2-6.08-169.24l-27.89.12S670.35,453.86,680.37,525.58Z" transform="translate(-127.34 -48.91)"/><path class="cls-4" d="M679.29,275.68c-5.31-1.29-8.61-3.61-9.8-6.88-1.74-4.79,1.65-9.62,2-10.16l1.05.77c-.14.19-3.41,4.72-1.88,8.94,1,2.85,4,4.88,8.89,6.06Z" transform="translate(-127.34 -48.91)"/><polygon class="cls-7" points="494.84 489.43 500.82 470.46 486.91 470.46 482.66 489.43 494.84 489.43"/><path class="cls-8" d="M628.19,519.2l-3.3,10.44a29.64,29.64,0,0,1-12.81-.43l2.37-10.6h5Z" transform="translate(-127.34 -48.91)"/><path class="cls-10" d="M695.77,300.27s37.55,6.88,34.17,44c-1.4,15.44-13.07,26.11-13.07,26.11l-4.29-13.05-15,5.05Z" transform="translate(-127.34 -48.91)"/><polygon class="cls-11" points="547.58 254.95 550.22 234.75 562.16 234.75 564.97 254.95 547.58 254.95"/><path class="cls-11" d="M681,291.46c7.55-2.12,16.46-12.54,13.13-24.58-2.64-9.54-18.95-6.91-23.31,1.28C664.09,280.88,663.67,296.34,681,291.46Z" transform="translate(-127.34 -48.91)"/><path class="cls-12" d="M612.14,324.06c-.73-.52-3.11-2.11-3.5-2.91s-1.75-5-2.63-4.66.65,3.15-.13,3.34c-.49.11-3.67-5.23-4.51-4.36-.56.56,1.8,3.54,1.41,3.72s-2.52-4.1-3.39-3.3,3,4.44,2.54,4.8c-.22.18-3.6-4.57-4.29-3.89-.92.89,2.9,4.2,2.51,4.64-.18.22-1.33-1.19-2.11-1.94-.44-.42-.84-.13-.72.26,1.33,4,7.73,7.75,8.14,8.34.62.88,1.25,1.72,1.88,2.53Z" transform="translate(-127.34 -48.91)"/><path class="cls-9" d="M603.67,524.74c12.7,1.79,24.58,2.21,34.89,0,42.81-79.42,60.73-169.12,60.73-169.12H666.21C623.49,429.21,603.67,524.74,603.67,524.74Z" transform="translate(-127.34 -48.91)"/><path class="cls-10" d="M631.22,332.55l-18.78-10.11-6.84,8.9s11.07,28.85,32.77,26.42c17.36-1.94,27.83-34.48,27.83-34.48Z" transform="translate(-127.34 -48.91)"/><path class="cls-10" d="M717.25,379.78c-29.87,13.6-73.27,1.7-73.27,1.7l1.32-4.4.2-.68,11.29-37.59-29.69-.36s19.89-27.91,31.48-34.7a36.62,36.62,0,0,1,11.67-3.95l1.08-.18a67.81,67.81,0,0,1,24.14.55c.28.05.56.12.83.18A42.8,42.8,0,0,1,708.5,305s-2.13,12,.85,20.13c6.79,18.52,7.81,40.64,7.92,50.06,0,.27,0,.52,0,.77C717.3,378.38,717.25,379.78,717.25,379.78Z" transform="translate(-127.34 -48.91)"/><path class="cls-13" d="M691.14,386l-1.32.1-1,.05c-23.23,1.31-44.87-4.63-44.87-4.63l1.32-4.4.2-.67,8.77-29.33c1.48-1.52,8.92-13.64,10.08-18.54,0,0,.5,12.55-3.45,22.84-2.49,6.49-5.29,16.14-2,22.27C663.22,381.59,690.77,385.85,691.14,386Z" transform="translate(-127.34 -48.91)"/><rect class="cls-4" x="625.47" y="327.67" width="19.65" height="1.3" transform="translate(-147.71 564.87) rotate(-50.86)"/><path class="cls-4" d="M674.86,292.68a8.64,8.64,0,0,1-5.87-2l.91-.93c.13.13,3.32,3.15,9.4.74l.48,1.21A13.38,13.38,0,0,1,674.86,292.68Z" transform="translate(-127.34 -48.91)"/><path class="cls-11" d="M691.69,299.31a17.77,17.77,0,0,1-16.11-.38l.2-1.62,15.59-.21Z" transform="translate(-127.34 -48.91)"/><path class="cls-4" d="M682.27,382.85a142.58,142.58,0,0,1-37.15-5.14l.36-1.25a140.88,140.88,0,0,0,36.79,5.09c13,0,24.71-2.09,34.76-6.23l.49,1.21C707.32,380.72,695.46,382.85,682.27,382.85Z" transform="translate(-127.34 -48.91)"/><path class="cls-4" d="M718.27,379.79H717c0-.32-.09-32.27-7.87-54.6l1.22-.43C718.18,347.29,718.27,379.46,718.27,379.79Z" transform="translate(-127.34 -48.91)"/><path class="cls-4" d="M685.45,304.51c-6.23,0-12.13-3-14.44-4.32l.65-1.13c3.44,2,15.32,7.9,23.37.63l.87,1A15.12,15.12,0,0,1,685.45,304.51Z" transform="translate(-127.34 -48.91)"/><path class="cls-4" d="M589.88,548.5h36.2l-2.47-14.22c-7.69,3.48-11.19,1.29-13.52.53a14.64,14.64,0,0,1-4,2.46c-5.71,2.18-15.83,5.39-16.07,8.06v0A11.44,11.44,0,0,0,589.88,548.5Z" transform="translate(-127.34 -48.91)"/><path class="cls-3" d="M599.84,542.11l-.5,0,.5,0-.5-.07a22.75,22.75,0,0,1,.48-3.87l1,.21a22.83,22.83,0,0,0-.45,3.7Z" transform="translate(-127.34 -48.91)"/><path class="cls-3" d="M602.94,541.36h-1a22.49,22.49,0,0,1,.53-4.2l1,.22A22.47,22.47,0,0,0,602.94,541.36Z" transform="translate(-127.34 -48.91)"/><path class="cls-4" d="M670.92,548.5h36.2l-2.47-14.22c-7.69,3.48-11.19,1.29-13.52.53a14.64,14.64,0,0,1-4,2.46c-5.71,2.18-15.83,5.39-16.07,8.06v0A11.44,11.44,0,0,0,670.92,548.5Z" transform="translate(-127.34 -48.91)"/><path class="cls-3" d="M680.88,542.11l-.5,0,.5,0-.5-.09a24.42,24.42,0,0,1,.47-3.85l1,.21a22.44,22.44,0,0,0-.45,3.69Z" transform="translate(-127.34 -48.91)"/><path class="cls-3" d="M684,541.36h-1a22.49,22.49,0,0,1,.53-4.2l1,.22A22.47,22.47,0,0,0,684,541.36Z" transform="translate(-127.34 -48.91)"/><rect class="cls-4" x="659.05" y="332.84" width="9.86" height="1.3" transform="translate(-154.12 558.32) rotate(-48.29)"/><path class="cls-4" d="M714.53,377.09h-1.3c0-7.36-1-17.74-1-17.84l1.29-.12C713.57,359.23,714.53,369.68,714.53,377.09Z" transform="translate(-127.34 -48.91)"/><path class="cls-4" d="M635.83,358.93c-20.48,0-31.08-26.95-31.18-27.22l1.21-.47c.1.26,10.37,26.39,30,26.39a23.61,23.61,0,0,0,2.51-.14c17-1.9,27.17-33,27.6-34.3l1.24.4c-.44,1.36-10.89,33.2-28.69,35.19A23.85,23.85,0,0,1,635.83,358.93Z" transform="translate(-127.34 -48.91)"/><path class="cls-4" d="M716.53,321.93c-7.84,4.68-26.45,3.55-33.13-12-4.92-11.46-2.5-24.45-1.35-28.06l-2-6.42a14.13,14.13,0,0,1-7.64-16.23s1.12.89,4.58.6c1.92-.16,7-2.05,12-1h0c4.53.59,14,3.72,14.94,18.71.8,12.36,11.09,13.68,16,18.65C729.67,306.13,725.39,316.64,716.53,321.93Z" transform="translate(-127.34 -48.91)"/><path class="cls-11" d="M684.61,278.54a3.37,3.37,0,1,1-3.36-3.36A3.36,3.36,0,0,1,684.61,278.54Z" transform="translate(-127.34 -48.91)"/><path class="cls-4" d="M728.2,302.64a17.69,17.69,0,0,0-5.94-8.94,26,26,0,0,0-5.41-3.26c-5.15-2.59-10.47-5.26-11.71-13.89-2.11-14.65-11.75-16.72-15.79-16.93h-.11c-3.65-.48-7.22.62-9.58,1.34a17.93,17.93,0,0,1-2,.55l-.22-1.28a17.42,17.42,0,0,0,1.85-.51c2.47-.76,6.2-1.9,10.14-1.39,4.36.23,14.76,2.44,17,18.05,1.14,8,6.15,10.47,11,12.9a27.36,27.36,0,0,1,5.68,3.45,18.94,18.94,0,0,1,6.35,9.61Z" transform="translate(-127.34 -48.91)"/><path class="cls-14" d="M708.82,526.93c-8.24,1.16-18.05.29-28.45-1.34-3.91-28-4.45-59.48-3.92-88,0,.33,8.56-27.16,8.56-27.16s-3.72,21.47-2.45,34.4c1.32,13.34,6.2,17.29,8.08,32.33,1.1,8.79-3.29,15.41-1.69,24.62,1.68,9.69,9.11,15.69,16.37,22.21C706.37,525,707.67,525.91,708.82,526.93Z" transform="translate(-127.34 -48.91)"/><path class="cls-3" d="M676.64,439.44l-1.23-.43c3.49-10,6.83-20.3,9.93-30.61l1.24.38C683.47,419.1,680.13,429.41,676.64,439.44Z" transform="translate(-127.34 -48.91)"/><path class="cls-14" d="M640.55,521c-.65,1.24-1.31,2.49-2,3.74-10.31,2.21-22.19,1.79-34.89,0a720.4,720.4,0,0,1,28-94.44c.88,9.33-1.42,19.05-4.16,28.16-3.61,12-8,24.18-6.91,36.65.8,9,5.46,18.66,13.39,23.51A22.67,22.67,0,0,0,640.55,521Z" transform="translate(-127.34 -48.91)"/><path class="cls-3" d="M629.91,438.28l-1.22-.44c7.76-21.62,15.67-40.95,22.86-55.92l1.17.56C645.55,397.41,637.66,416.7,629.91,438.28Z" transform="translate(-127.34 -48.91)"/><path class="cls-10" d="M346.28,212c-1.55,90.66-136.41,90.65-137.95,0C209.88,121.35,344.74,121.37,346.28,212Z" transform="translate(-127.34 -48.91)"/><path class="cls-6" d="M346.28,212c-1.55,90.66-136.41,90.65-137.95,0C209.88,121.35,344.74,121.37,346.28,212Z" transform="translate(-127.34 -48.91)"/><path class="cls-5" d="M337.38,212c-1.35,79-118.81,79-120.14,0C218.59,133.06,336,133.07,337.38,212Z" transform="translate(-127.34 -48.91)"/><path class="cls-5" d="M337.38,212c-1.35,79-118.81,79-120.14,0C218.59,133.06,336,133.07,337.38,212Z" transform="translate(-127.34 -48.91)"/><path class="cls-4" d="M312.73,220.8l-33.24-10.7-17.36-41.2a2.49,2.49,0,1,0-4.59,1.94l16.38,38.87-45-13.29a1.25,1.25,0,0,0-.71,2.39l46.92,13.87.22.53-.24.73.63.2.24.56.65-.27,34.53,11.11C314.26,226.58,315.83,221.75,312.73,220.8Z" transform="translate(-127.34 -48.91)"/><path class="cls-4" d="M270.32,171.06v1.79h6.58v-1.79h-2.13v-9.83h-1.63l-3.6,3.11c1.08,2,1.86,1,3.11-.1v6.82Z" transform="translate(-127.34 -48.91)"/><path class="cls-4" d="M284.84,170.81H281.1c10.72-8.3-1.71-13.87-3.22-5.92,3.09,1.11,1.56-2.5,4.54-1.74,3.85,3.16-5.35,6.44-4.71,9.7h8C285.67,172.14,286,170.8,284.84,170.81Z" transform="translate(-127.34 -48.91)"/><path class="cls-4" d="M280.35,255.71a3.76,3.76,0,0,0-3.19-.89l3.36-4.25c-.46.07-2.2-.14-2.59.13-.27-.08-3,3.84-3.18,4C268.13,264,285.73,264.88,280.35,255.71Zm-4.93,2.73c-.07-2.45,4.05-2.51,3.88,0C279.42,261,275.21,261,275.42,258.44Z" transform="translate(-127.34 -48.91)"/><path class="cls-4" d="M327.46,212.13a2.77,2.77,0,0,0-.89-.72c5.11-5-6-8.56-6.25-1.87.71.11,2,.56,2.18-.5,2-4.1,5.72,2.15.69,1.65v1.76c3.71-.73,3.54,4.07.09,3.13-1.55-.87-1-2.74-3.33-1.38C320.69,220.12,330.74,217.49,327.46,212.13Z" transform="translate(-127.34 -48.91)"/><path class="cls-4" d="M233.37,206.88c-5.76-4.93-10.39,6.83-2.49,6.1l-3.46,4.53c.74-.1,2.57.32,3-.48C232.21,214.28,236.41,210.12,233.37,206.88Zm-4.5,1.86c.9-2.11,4.3-.76,3.36,1.43S227.86,211,228.87,208.74Z" transform="translate(-127.34 -48.91)"/><rect class="cls-2" x="249.19" y="159.75" width="2.31" height="7.77" transform="translate(-175.62 98.2) rotate(-30)"/><rect class="cls-2" x="303.11" y="256.23" width="2.31" height="7.77" transform="translate(-216.63 138.09) rotate(-30)"/><rect class="cls-2" x="227.49" y="179.75" width="2.35" height="8.09" transform="translate(-172.17 241.02) rotate(-60)"/><rect class="cls-2" x="227.49" y="179.75" width="2.35" height="8.09" transform="translate(-172.17 241.02) rotate(-60)"/><rect class="cls-2" x="324.77" y="235.91" width="2.35" height="8.09" transform="translate(-172.17 353.34) rotate(-60)"/><rect class="cls-2" x="224.62" y="238.78" width="8.09" height="2.35" transform="translate(-216.68 97.6) rotate(-30)"/><rect class="cls-2" x="224.62" y="238.78" width="8.09" height="2.35" transform="translate(-216.68 97.6) rotate(-30)"/><rect class="cls-2" x="321.9" y="182.62" width="8.09" height="2.35" transform="translate(-175.56 138.73) rotate(-30.01)"/><rect class="cls-2" x="246.46" y="258.96" width="7.77" height="2.31" transform="translate(-227.44 297.94) rotate(-60)"/><rect class="cls-2" x="246.46" y="258.96" width="7.77" height="2.31" transform="translate(-227.44 297.94) rotate(-60)"/><rect class="cls-2" x="300.38" y="162.48" width="7.77" height="2.31" transform="translate(-116.93 296.4) rotate(-60)"/><path class="cls-15" d="M283.54,212c.12,8.08-12.58,8.08-12.46,0C271,203.93,283.66,203.93,283.54,212Z" transform="translate(-127.34 -48.91)"/><path class="cls-2" d="M277.31,272.08h0c-28.85,0-60.21-18.79-60.91-60,.7-41.29,32.07-60.08,60.92-60.08h0c28.85,0,60.22,18.8,60.91,60.05v0C337.52,253.29,306.15,272.08,277.31,272.08Zm0-118.43c-28,0-58.54,18.27-59.22,58.38.67,40.08,31.17,58.35,59.21,58.36s58.54-18.27,59.23-58.37C335.84,171.92,305.35,153.65,277.31,153.65Z" transform="translate(-127.34 -48.91)"/><path class="cls-2" d="M338.5,181.12A62.13,62.13,0,0,0,314,154.61l.86-1.46A63.85,63.85,0,0,1,340,180.38Z" transform="translate(-127.34 -48.91)"/><path class="cls-2" d="M209.3,228.18A82.67,82.67,0,0,1,207.49,212c.49-28.81,13.95-45.29,25.17-54,16.82-13.14,40-17.94,62-12.84l-.39,1.66c-21.51-5-44.16-.31-60.59,12.51-10.92,8.53-24,24.6-24.52,52.71A81.56,81.56,0,0,0,211,227.82Z" transform="translate(-127.34 -48.91)"/><path class="cls-2" d="M277.37,280.87c-20.81,0-41-8.44-54-23.74l1.29-1.09c17.9,21,49.84,28.8,77.67,18.84,26.89-9.63,42.6-32.54,43.12-62.88l1.7,0c-.28,16.25-4.74,30.32-13.26,41.82a65.84,65.84,0,0,1-31,22.62A75.84,75.84,0,0,1,277.37,280.87Z" transform="translate(-127.34 -48.91)"/><rect class="cls-16" x="308.2" y="143.4" width="71.21" height="54.78"/><rect class="cls-16" x="390.62" y="143.4" width="71.21" height="54.78"/><rect class="cls-16" x="308.2" y="208.95" width="71.21" height="54.78"/><rect class="cls-16" x="390.62" y="208.95" width="71.21" height="54.78"/><path class="cls-5" d="M551.11,300.74a7.66,7.66,0,0,1-4.81-2.58,7.85,7.85,0,0,1-1.66-5.16v-2.16h5.66v2.48c0,1.91,1,2.87,3.1,2.87s3.11-1,3.11-3a5.5,5.5,0,0,0-1.09-3.31,16.52,16.52,0,0,0-4-3.45,19.29,19.29,0,0,1-5.12-4.65,8.48,8.48,0,0,1-1.47-4.88,7.72,7.72,0,0,1,1.6-5,7.84,7.84,0,0,1,4.71-2.58v-2.86H556v2.86a7.7,7.7,0,0,1,4.79,2.56,7.86,7.86,0,0,1,1.63,5.14V278h-5.66V276.7q0-2.91-3-2.91c-2,0-3,.94-3,2.82a5,5,0,0,0,1.09,3.12,17.71,17.71,0,0,0,4,3.45A19.85,19.85,0,0,1,561,287.9a8.75,8.75,0,0,1,1.47,5,8,8,0,0,1-1.67,5.24,7.63,7.63,0,0,1-4.81,2.6V304h-4.91Z" transform="translate(-127.34 -48.91)"/><path class="cls-10" d="M430.44,376.69v23.22H204.58V376.69A12.75,12.75,0,0,1,217.29,364H417.73A12.75,12.75,0,0,1,430.44,376.69Z" transform="translate(-127.34 -48.91)"/><path class="cls-3" d="M430.44,399.91V536.34a12.75,12.75,0,0,1-12.71,12.71H217.29a12.75,12.75,0,0,1-12.71-12.71V399.91Z" transform="translate(-127.34 -48.91)"/><rect class="cls-17" x="90.69" y="374.99" width="21.13" height="17.28"/><rect class="cls-17" x="90.69" y="402.44" width="21.13" height="17.28"/><rect class="cls-17" x="90.69" y="429.89" width="21.13" height="17.28"/><rect class="cls-17" x="90.69" y="457.35" width="21.13" height="17.28"/><rect class="cls-17" x="120.33" y="374.99" width="21.13" height="17.28"/><rect class="cls-17" x="120.33" y="402.44" width="21.13" height="17.28"/><rect class="cls-17" x="120.33" y="429.89" width="21.13" height="17.28"/><rect class="cls-17" x="120.33" y="457.35" width="21.13" height="17.28"/><rect class="cls-17" x="149.97" y="374.99" width="21.13" height="17.28"/><rect class="cls-17" x="149.97" y="402.44" width="21.13" height="17.28"/><rect class="cls-17" x="149.97" y="429.89" width="21.13" height="17.28"/><rect class="cls-17" x="149.97" y="457.35" width="21.13" height="17.28"/><rect class="cls-17" x="179.61" y="374.99" width="21.13" height="17.28"/><rect class="cls-6" x="179.61" y="402.44" width="21.13" height="17.28"/><rect class="cls-17" x="179.61" y="429.89" width="21.13" height="17.28"/><rect class="cls-17" x="179.61" y="457.35" width="21.13" height="17.28"/><rect class="cls-17" x="209.26" y="374.99" width="21.13" height="17.28"/><rect class="cls-17" x="209.26" y="402.44" width="21.13" height="17.28"/><rect class="cls-17" x="209.26" y="429.89" width="21.13" height="17.28"/><rect class="cls-17" x="209.26" y="457.35" width="21.13" height="17.28"/><rect class="cls-18" x="238.9" y="429.89" width="21.13" height="17.28"/><rect class="cls-18" x="238.9" y="374.99" width="21.13" height="17.28"/><rect class="cls-18" x="238.9" y="402.44" width="21.13" height="17.28"/><rect class="cls-18" x="238.9" y="457.35" width="21.13" height="17.28"/><rect class="cls-18" x="268.54" y="457.35" width="21.13" height="17.28"/><rect class="cls-18" x="268.54" y="374.99" width="21.13" height="17.28"/><rect class="cls-18" x="268.54" y="402.44" width="21.13" height="17.28"/><rect class="cls-18" x="268.54" y="429.89" width="21.13" height="17.28"/><polygon class="cls-3" points="189.13 417.61 182.96 409.35 184.91 407.71 189.1 413.32 195.49 404.54 197.46 406.16 189.13 417.61"/><rect class="cls-2" x="99.26" y="349.84" width="181.83" height="2"/><path class="cls-2" d="M431.45,413.67h-2v-37A11.73,11.73,0,0,0,417.74,365H217.29v-2H417.74a13.73,13.73,0,0,1,13.71,13.71Z" transform="translate(-127.34 -48.91)"/><path class="cls-2" d="M417.74,550.05H217.29a13.73,13.73,0,0,1-13.71-13.71V376.69h2V536.34a11.73,11.73,0,0,0,11.71,11.71H417.74a11.73,11.73,0,0,0,11.71-11.71V456.51h2v79.83A13.73,13.73,0,0,1,417.74,550.05Z" transform="translate(-127.34 -48.91)"/><path class="cls-19" d="M274,379.47a5.64,5.64,0,1,1-5.64-6A5.81,5.81,0,0,1,274,379.47Z" transform="translate(-127.34 -48.91)"/><rect class="cls-4" x="137.42" y="303.43" width="7.25" height="29.74" rx="3.59"/><path class="cls-19" d="M244.79,379.47a5.64,5.64,0,1,1-5.64-6A5.81,5.81,0,0,1,244.79,379.47Z" transform="translate(-127.34 -48.91)"/><rect class="cls-4" x="108.19" y="303.43" width="7.25" height="29.74" rx="3.59"/><path class="cls-19" d="M305.89,379.47a5.64,5.64,0,1,1-5.63-6A5.81,5.81,0,0,1,305.89,379.47Z" transform="translate(-127.34 -48.91)"/><rect class="cls-4" x="169.3" y="303.43" width="7.25" height="29.74" rx="3.59"/><path class="cls-19" d="M337.76,379.47a5.64,5.64,0,1,1-5.63-6A5.81,5.81,0,0,1,337.76,379.47Z" transform="translate(-127.34 -48.91)"/><rect class="cls-4" x="201.17" y="303.43" width="7.25" height="29.74" rx="3.59"/><path class="cls-19" d="M369.64,379.47a5.64,5.64,0,1,1-5.64-6A5.82,5.82,0,0,1,369.64,379.47Z" transform="translate(-127.34 -48.91)"/><rect class="cls-4" x="233.04" y="303.43" width="7.25" height="29.74" rx="3.59"/><path class="cls-19" d="M401.51,379.47a5.64,5.64,0,1,1-5.63-6A5.81,5.81,0,0,1,401.51,379.47Z" transform="translate(-127.34 -48.91)"/><rect class="cls-4" x="264.91" y="303.43" width="7.25" height="29.74" rx="3.59"/><circle class="cls-20" cx="544.44" cy="503.67" r="45.7" transform="translate(-150.97 -22.09) rotate(-2.76)"/><circle class="cls-21" cx="544.44" cy="503.67" r="32.88" transform="translate(-324.02 483.59) rotate(-45)"/><path class="cls-2" d="M522.36,544.75a46.64,46.64,0,1,1,46.29-80.95l-1,1.59a44.77,44.77,0,1,0,.41,76.29l1,1.58a46.69,46.69,0,0,1-46.72,1.49Z" transform="translate(-127.34 -48.91)"/><path class="cls-2" d="M581.41,532.11,579.93,531a44.36,44.36,0,0,0,8.46-18.8,44.81,44.81,0,0,0-8.46-35.78l1.49-1.13a46.64,46.64,0,0,1,8.8,37.27A46.13,46.13,0,0,1,581.41,532.11Z" transform="translate(-127.34 -48.91)"/><path class="cls-20" d="M536.9,524.31a11,11,0,0,1-6-4.85,10.94,10.94,0,0,1-.94-7.55l.57-3,7.91,1.53-.66,3.42q-.76,3.95,3.57,4.78t5.12-3.23a7.61,7.61,0,0,0-.64-4.85,23.53,23.53,0,0,0-4.71-5.83,27.68,27.68,0,0,1-5.91-7.77,11.83,11.83,0,0,1-.75-7.12A10.66,10.66,0,0,1,538,483.4a11,11,0,0,1,7.26-2.28l.76-3.94,6.84,1.33-.76,3.94A10.09,10.09,0,0,1,559,494.77l-.25,1.29-7.9-1.53.34-1.74c.51-2.67-.62-4.27-3.41-4.81s-4.43.48-4.93,3.06a7,7,0,0,0,.69,4.59,25.63,25.63,0,0,0,4.71,5.83,28,28,0,0,1,5.89,7.87,12.14,12.14,0,0,1,.72,7.28,11.13,11.13,0,0,1-3.71,6.74,11,11,0,0,1-7.42,2.29l-.88,4.52L536,528.83Z" transform="translate(-127.34 -48.91)"/><path class="cls-22" d="M526.52,469a16.22,16.22,0,0,1,2.82,10.28h0A16.2,16.2,0,0,1,539.48,476h0a16.21,16.21,0,0,1-2.83-10.28h0A16.17,16.17,0,0,1,526.52,469Z" transform="translate(-127.34 -48.91)"/><path class="cls-22" d="M545.81,534.81a9.49,9.49,0,0,1,1.64,6h0a9.36,9.36,0,0,1,5.89-1.92h0a9.38,9.38,0,0,1-1.64-6h0A9.38,9.38,0,0,1,545.81,534.81Z" transform="translate(-127.34 -48.91)"/><rect class="cls-20" x="7.18" y="482.54" width="88.66" height="17.16"/><rect class="cls-20" x="25.85" y="463.57" width="88.66" height="17.16"/><rect class="cls-20" x="7.24" y="444.66" width="88.66" height="17.16"/><rect class="cls-2" x="85.63" y="444.66" width="1.87" height="17.16"/><rect class="cls-2" x="76.3" y="444.66" width="1.87" height="17.16"/><rect class="cls-2" x="48.29" y="444.66" width="1.87" height="17.16"/><rect class="cls-2" x="29.62" y="444.66" width="1.87" height="17.16"/><rect class="cls-2" x="104.24" y="463.57" width="1.87" height="17.16"/><rect class="cls-2" x="94.91" y="463.57" width="1.87" height="17.16"/><rect class="cls-2" x="66.9" y="463.57" width="1.87" height="17.16"/><rect class="cls-2" x="57.57" y="463.57" width="1.87" height="17.16"/><rect class="cls-2" x="48.23" y="482.54" width="1.87" height="17.16"/><rect class="cls-2" x="29.56" y="482.54" width="1.87" height="17.16"/><rect class="cls-2" x="20.23" y="482.54" width="1.87" height="17.16"/><rect class="cls-2" x="7.23" y="461.72" width="88.19" height="1.87"/><rect class="cls-2" x="25.91" y="480.81" width="88.6" height="1.87"/><path class="cls-22" d="M160,518.46a16.47,16.47,0,0,1,7.46,7.83h0a16.44,16.44,0,0,1,7.46-7.84h0a16.44,16.44,0,0,1-7.46-7.82h0A16.47,16.47,0,0,1,160,518.46Z" transform="translate(-127.34 -48.91)"/><path class="cls-22" d="M190,540.69a9.37,9.37,0,0,1,4.27,4.48h0a9.46,9.46,0,0,1,4.28-4.49h0a9.48,9.48,0,0,1-4.28-4.48h0A9.44,9.44,0,0,1,190,540.69Z" transform="translate(-127.34 -48.91)"/><path class="cls-22" d="M208.69,502.87a9.41,9.41,0,0,1,4.27,4.48h0a9.46,9.46,0,0,1,4.28-4.49h0a9.39,9.39,0,0,1-4.28-4.48h0A9.39,9.39,0,0,1,208.69,502.87Z" transform="translate(-127.34 -48.91)"/><rect class="cls-2" x="113.58" y="463.57" width="1.87" height="19.11"/><polygon class="cls-6" points="356.45 226.15 351.92 226.15 351.9 220.14 356.42 220.14 356.45 226.15"/><polygon class="cls-6" points="357.61 218.5 350.69 218.5 350.68 216.62 357.61 216.62 357.61 218.5"/><polygon class="cls-6" points="357.06 220.33 351.26 220.33 351.25 218.56 357.05 218.56 357.06 220.33"/><polygon class="cls-6" points="324.89 231.66 324.87 227.43 343.82 219.02 362.73 227.43 362.74 231.66 324.89 231.66"/><polygon class="cls-2" points="327.99 252.53 339.24 252.53 339.26 256.06 328.01 256.06 327.99 252.53"/><polygon class="cls-2" points="360.06 252.53 360.07 256.06 348.82 256.06 348.8 252.53 360.06 252.53"/><path class="cls-5" d="M471.18,271.42l-16,6.93.12,23.08h32.07l-.1-23.08Zm-6.91,20.46h-6.49l0-8.59h6.49Zm20.58,0h-6.49l0-8.59h6.49Z" transform="translate(-127.34 -48.91)"/><polygon class="cls-2" points="348.8 252.53 348.82 256.06 339.26 256.06 339.24 252.53 348.8 252.53"/><polygon class="cls-6" points="348.72 235.35 348.8 252.53 339.24 252.53 339.16 235.35 348.72 235.35"/><polygon class="cls-5" points="341.97 244.89 340.15 244.89 340.15 244.21 341.97 244.21 341.97 244.89"/><path class="cls-6" d="M538,220.19a5,5,0,0,1-1.8-4.13v-8.72a5,5,0,0,1,1.8-4.13,10.34,10.34,0,0,1,10.56,0,5,5,0,0,1,1.8,4.13v8.72a5,5,0,0,1-1.8,4.13,10.34,10.34,0,0,1-10.56,0Zm7.69-3.88v-9.22c0-1.46-.81-2.19-2.41-2.19s-2.4.73-2.4,2.19v9.22q0,2.19,2.4,2.19C544.91,218.5,545.72,217.77,545.72,216.31Zm14.56-14.05H565l-18.11,34.87h-4.68Zm-1.74,33.92a5,5,0,0,1-1.8-4.13v-8.72a5,5,0,0,1,1.8-4.13,10.34,10.34,0,0,1,10.56,0,5,5,0,0,1,1.8,4.13v8.72a5,5,0,0,1-1.8,4.13,10.34,10.34,0,0,1-10.56,0Zm7.68-3.88v-9.22q0-2.19-2.4-2.19t-2.4,2.19v9.22q0,2.19,2.4,2.19T566.22,232.3Z" transform="translate(-127.34 -48.91)"/><polygon class="cls-5" points="365.23 162.44 365.23 163.37 323.77 163.37 323.77 162.44 344.51 150.9 365.23 162.44"/><path class="cls-16" d="M471.84,209.8a3.26,3.26,0,1,1,3.52-3.25A3.39,3.39,0,0,1,471.84,209.8Zm0-5.39a2.15,2.15,0,1,0,2.32,2.14A2.24,2.24,0,0,0,471.84,204.41Z" transform="translate(-127.34 -48.91)"/><rect class="cls-5" x="329" y="165.55" width="5.25" height="21.72"/><rect class="cls-5" x="341.88" y="165.55" width="5.25" height="21.72"/><rect class="cls-5" x="354.76" y="165.55" width="5.25" height="21.72"/><rect class="cls-16" x="323.77" y="163.29" width="41.45" height="1.39"/><rect class="cls-5" x="325.94" y="164.86" width="37.11" height="1.39"/><rect class="cls-2" x="324.89" y="186.54" width="37.83" height="1.39"/><rect class="cls-2" x="322.25" y="189.3" width="43.11" height="1.39"/><rect class="cls-2" y="499.19" width="625.43" height="3"/></svg>